<?xml version="1.0" standalone="no"?>
<!DOCTYPE svg PUBLIC "-//W3C//DTD SVG 20010904//EN"
 "http://www.w3.org/TR/2001/REC-SVG-20010904/DTD/svg10.dtd">
<svg version="1.0" xmlns="http://www.w3.org/2000/svg"
 width="500.000000pt" height="500.000000pt" viewBox="0 0 500.000000 500.000000"
 preserveAspectRatio="xMidYMid meet">
<metadata>
Created by potrace 1.14, written by Peter Selinger 2001-2017
</metadata>
<g transform="translate(0.000000,500.000000) scale(0.100000,-0.100000)"
fill="#000000" stroke="none">
<path d="M4037 4664 c-1 -2 -45 -6 -97 -9 -52 -4 -101 -7 -107 -7 -7 -1 -13
-5 -13 -10 0 -5 -4 -7 -8 -4 -9 5 -130 -27 -161 -44 -12 -6 -27 -10 -34 -7 -6
2 -20 -5 -31 -14 -10 -10 -23 -16 -28 -13 -4 3 -8 1 -8 -4 0 -5 -22 -19 -50
-32 -27 -13 -50 -27 -50 -32 0 -4 -6 -8 -13 -8 -7 0 -22 -8 -33 -18 -11 -11
-25 -21 -31 -23 -37 -14 -192 -164 -258 -250 -22 -28 -50 -63 -62 -77 -13 -14
-23 -31 -23 -38 0 -8 -4 -14 -8 -14 -5 0 -16 -16 -25 -35 -9 -19 -21 -35 -27
-35 -5 0 -9 -3 -8 -7 2 -5 -8 -26 -21 -48 -27 -44 -26 -41 -36 -72 -4 -13 -11
-23 -16 -23 -5 0 -9 -4 -9 -9 0 -5 -15 -42 -34 -83 -18 -40 -46 -107 -62 -148
-16 -41 -31 -77 -34 -80 -3 -3 -6 -18 -8 -35 -2 -16 -8 -32 -13 -33 -5 -2 -7
-7 -5 -11 3 -4 -4 -38 -15 -76 -11 -39 -21 -81 -23 -95 -2 -14 -6 -36 -10 -50
-9 -38 -25 -141 -31 -200 -2 -14 -4 -25 -5 -25 -1 0 -3 -16 -5 -35 -5 -63 -14
-134 -20 -160 -6 -28 -16 -273 -15 -367 0 -35 0 -71 0 -80 0 -43 1 -80 4 -106
2 -15 -1 -30 -6 -33 -4 -3 -6 -10 -2 -15 3 -6 7 -32 9 -57 4 -56 18 -176 31
-262 13 -90 17 -117 18 -140 1 -14 4 -27 8 -30 3 -3 9 -23 12 -45 10 -77 46
-210 83 -310 14 -38 26 -78 26 -87 1 -10 5 -18 10 -18 4 0 6 -4 3 -9 -4 -5 -3
-11 1 -13 9 -3 63 -108 63 -121 0 -4 20 -38 45 -77 25 -38 42 -70 37 -70 -4 0
1 -5 11 -11 9 -5 17 -17 17 -24 0 -8 5 -15 10 -15 6 0 10 -7 10 -15 0 -8 5
-15 10 -15 6 0 10 -5 10 -11 0 -6 6 -16 13 -23 6 -7 32 -37 57 -66 52 -61 99
-110 104 -110 2 0 23 -18 47 -39 23 -22 46 -38 50 -35 4 2 9 1 11 -3 5 -12 75
-63 86 -63 5 0 15 -7 22 -15 7 -8 16 -12 21 -9 5 3 9 0 9 -5 0 -6 9 -11 19
-11 11 0 21 -5 23 -11 2 -5 12 -12 23 -14 11 -2 22 -4 25 -5 3 -1 8 -2 12 -2
3 1 12 -5 18 -13 7 -8 23 -15 36 -15 12 0 25 -4 28 -9 4 -5 14 -8 24 -6 9 1
22 -1 27 -6 29 -22 398 -48 410 -28 2 3 21 6 42 8 65 4 97 9 133 21 19 6 53
13 74 16 22 4 59 15 83 25 24 10 43 16 43 12 0 -3 6 0 13 6 8 6 32 17 55 25
55 20 174 78 190 93 7 7 24 16 38 19 13 3 24 10 24 14 0 5 8 11 19 15 29 9
111 91 112 112 0 10 2 25 4 34 1 9 5 61 9 115 3 54 8 115 11 134 2 19 7 64 10
100 3 36 7 85 10 110 9 84 12 159 6 169 -12 18 -34 -7 -37 -41 -1 -18 -6 -47
-12 -65 -6 -17 -8 -34 -4 -37 3 -3 0 -6 -7 -6 -7 0 -9 -4 -6 -10 3 -5 1 -10
-5 -10 -6 0 -9 -4 -6 -9 4 -5 1 -22 -6 -38 -6 -15 -12 -30 -13 -33 -13 -49
-79 -200 -108 -244 -6 -11 -25 -40 -40 -65 -41 -68 -125 -162 -184 -207 -29
-21 -53 -42 -53 -46 0 -5 -6 -8 -14 -8 -7 0 -25 -9 -40 -21 -14 -11 -26 -18
-26 -14 0 3 -13 -3 -29 -15 -16 -11 -33 -20 -38 -18 -4 1 -26 -6 -48 -16 -22
-10 -65 -19 -96 -20 -32 0 -55 -4 -53 -8 3 -4 -14 -6 -36 -5 -22 2 -40 0 -40
-4 0 -3 -7 -6 -15 -6 -8 0 -15 3 -15 7 0 3 -20 5 -45 4 -25 -1 -45 1 -45 5 0
4 -17 6 -37 5 -21 0 -54 5 -73 12 -19 8 -46 16 -60 18 -14 3 -27 5 -30 6 -3 2
-8 2 -12 1 -5 0 -8 4 -8 9 0 6 -5 10 -12 10 -17 0 -102 42 -110 54 -4 6 -8 7
-8 3 0 -4 -10 1 -22 12 -11 11 -24 18 -28 16 -3 -2 -13 5 -20 16 -8 10 -20 19
-27 19 -7 0 -13 8 -13 17 0 9 -3 14 -6 10 -3 -3 -17 5 -31 19 -13 13 -28 24
-34 24 -6 0 -7 5 -4 10 3 6 -2 10 -11 10 -10 0 -15 3 -12 6 3 3 -9 21 -28 39
-19 19 -34 39 -34 45 0 5 -4 10 -9 10 -5 0 -24 23 -42 51 -18 28 -37 56 -44
62 -6 7 -20 28 -30 47 -11 19 -26 43 -34 53 -8 9 -10 17 -5 17 5 0 4 4 -2 8
-10 7 -43 73 -98 195 -43 95 -129 349 -141 417 -3 14 -6 33 -8 42 -2 10 -6 20
-9 24 -4 3 -4 12 -1 20 3 8 0 20 -6 28 -7 8 -11 18 -9 22 1 5 -3 36 -9 69 -22
116 -34 191 -38 250 -3 33 -8 92 -13 130 -4 39 -7 118 -7 177 0 60 -3 108 -7
108 -4 0 -3 11 2 25 5 13 6 26 2 29 -4 2 -6 22 -4 43 1 21 5 94 7 163 2 69 6
143 9 165 2 22 7 76 11 120 3 43 8 82 10 85 2 3 7 33 10 65 4 33 9 63 11 67 3
4 7 26 10 50 3 24 8 50 11 58 3 8 7 26 9 40 1 14 8 41 13 60 6 19 18 61 27 93
8 31 20 57 25 57 6 0 8 4 4 9 -3 5 5 38 19 74 30 80 138 299 156 317 3 3 20
28 39 55 51 73 204 235 223 235 5 0 18 8 29 19 11 10 37 27 57 37 20 10 48 26
62 35 14 9 27 17 30 17 3 0 22 7 44 16 21 9 46 16 55 16 9 0 36 7 61 16 30 11
80 16 150 17 88 0 134 -6 235 -29 13 -3 66 -14 82 -18 7 -1 16 -5 19 -9 4 -4
18 -7 31 -7 13 0 23 -5 23 -11 0 -5 5 -7 10 -4 6 3 10 2 10 -4 0 -6 12 -14 28
-17 28 -7 81 -40 94 -59 4 -5 8 -6 8 -2 0 5 7 2 15 -5 33 -30 45 -38 54 -38 5
0 13 -9 16 -20 3 -11 12 -20 18 -20 7 0 23 -14 36 -31 14 -17 38 -45 54 -62
15 -17 35 -43 43 -59 8 -15 19 -28 25 -28 6 0 7 -4 4 -10 -3 -5 -2 -10 4 -10
6 0 13 -11 17 -25 3 -14 9 -25 13 -25 4 0 13 -16 21 -35 8 -19 17 -35 21 -35
4 0 9 -8 12 -17 3 -10 17 -49 31 -88 14 -38 27 -79 30 -90 18 -85 41 -84 41 1
0 32 5 62 10 66 6 5 6 8 -1 8 -12 0 -14 32 -19 315 l-3 159 -38 34 c-54 46
-58 49 -82 56 -12 4 -20 12 -17 17 4 5 -3 9 -14 9 -11 0 -26 7 -34 15 -8 8
-17 11 -21 8 -3 -4 -6 -1 -6 5 0 6 -13 13 -30 17 -16 4 -30 10 -30 14 0 4 -17
13 -37 20 -21 8 -40 17 -43 20 -4 6 -185 69 -215 76 -48 10 -89 16 -140 20
-33 3 -72 6 -88 8 -15 2 -29 2 -30 1z"/>
<path d="M216 4543 c-3 -3 -27 -6 -52 -6 -38 1 -47 -3 -54 -21 -8 -23 10 -51
39 -61 28 -9 93 -130 107 -200 27 -137 30 -158 39 -380 10 -222 11 -255 2
-255 -5 0 -5 -5 -1 -12 8 -13 8 -2546 -1 -2728 -6 -141 -12 -193 -29 -275 -8
-36 -29 -85 -37 -85 -6 0 -8 -4 -5 -9 4 -5 -13 -27 -36 -49 -66 -63 -55 -68
176 -71 199 -2 207 -1 212 37 1 7 -16 25 -39 40 -44 28 -82 62 -85 75 -1 4 -9
21 -17 37 -9 17 -12 30 -8 30 5 0 3 4 -4 8 -6 4 -14 19 -17 32 -2 14 -11 52
-18 85 -8 33 -13 71 -12 85 1 14 -1 30 -5 35 -11 18 -12 115 -15 1648 -2 1467
-1 1527 16 1527 16 0 21 -15 17 -46 0 -4 3 -10 8 -13 5 -3 19 -31 31 -61 12
-30 27 -68 33 -85 7 -16 13 -34 15 -40 1 -5 14 -40 28 -77 14 -38 22 -68 18
-68 -4 0 -2 -4 3 -8 6 -4 20 -34 32 -67 64 -177 135 -372 143 -390 18 -43 75
-191 77 -200 2 -10 107 -284 122 -320 5 -11 18 -46 30 -77 12 -32 30 -84 42
-115 26 -71 33 -91 47 -123 13 -30 53 -141 56 -155 2 -5 8 -21 14 -35 33 -74
52 -124 52 -135 0 -6 7 -26 15 -43 9 -17 18 -39 19 -49 4 -17 12 -40 85 -229
17 -44 31 -87 32 -95 1 -21 43 -92 54 -92 6 0 20 19 32 41 12 23 20 42 16 42
-3 0 -1 6 4 13 8 9 41 95 48 127 1 3 7 19 14 35 7 17 15 39 17 49 2 11 8 24
14 30 5 5 10 18 10 28 0 10 5 18 12 18 6 0 9 3 5 6 -6 6 18 74 49 142 8 18 17
41 19 52 2 10 8 27 14 38 6 11 7 22 4 26 -3 3 -1 6 5 6 7 0 12 7 12 15 0 8 7
31 16 52 21 48 28 66 50 128 10 28 24 61 31 75 7 14 13 32 13 41 0 8 4 19 9
25 5 5 19 41 31 79 13 39 26 75 30 80 4 6 13 28 20 50 7 22 15 45 19 50 3 6 7
17 8 25 1 8 14 44 28 79 14 36 25 71 25 78 0 7 5 13 10 13 6 0 9 3 8 8 -2 10
13 65 22 77 4 6 21 48 39 95 18 47 44 112 56 145 31 80 38 98 40 111 2 6 14
34 27 62 14 28 20 48 14 44 -6 -3 -4 5 5 18 8 14 26 54 38 90 13 36 29 79 36
95 7 17 23 57 34 90 12 33 25 67 28 75 3 8 7 18 8 23 2 4 4 9 5 12 1 3 3 8 5
13 1 4 7 20 13 35 7 15 15 40 18 55 4 15 12 30 18 34 6 4 11 15 11 24 0 10 6
19 14 22 8 3 11 0 7 -7 -4 -6 -3 -11 2 -11 11 0 10 -120 -1 -137 -5 -7 -5 -13
0 -13 4 0 8 -317 8 -705 0 -388 -4 -705 -8 -705 -4 0 -4 -8 1 -17 15 -31 4
-1594 -12 -1748 -5 -47 -21 -140 -26 -150 -1 -3 -3 -9 -4 -13 -4 -28 -45 -93
-68 -109 -31 -20 -40 -36 -32 -56 4 -11 55 -13 242 -13 l237 1 1 28 c1 15 -3
27 -9 27 -26 0 -105 119 -93 139 4 5 2 12 -3 16 -6 3 -13 24 -16 48 -6 39 -9
73 -20 207 -9 113 -5 3155 5 3155 1 0 4 27 6 59 3 33 11 92 20 130 20 91 18
85 37 130 9 21 17 42 17 47 0 5 3 9 8 9 4 0 16 14 27 30 11 16 25 30 30 30 6
0 18 12 28 26 19 25 15 63 -6 65 -7 1 -60 2 -119 3 -111 2 -145 -4 -153 -26
-2 -7 -32 -87 -66 -178 -34 -91 -62 -171 -62 -177 0 -7 -4 -13 -9 -13 -4 0 -7
-3 -6 -7 1 -5 -3 -24 -10 -43 -7 -19 -13 -37 -13 -40 0 -3 -5 -11 -11 -17 -6
-7 -7 -13 -2 -13 5 0 4 -4 -1 -8 -6 -4 -16 -25 -24 -47 -7 -22 -19 -53 -26
-70 -8 -16 -29 -70 -48 -120 -19 -49 -38 -99 -42 -110 -5 -11 -9 -23 -10 -27
-2 -5 -4 -10 -5 -13 -1 -3 -3 -8 -5 -12 -1 -5 -4 -15 -8 -23 -25 -61 -129
-338 -132 -352 -2 -10 -10 -32 -18 -50 -8 -18 -20 -46 -27 -63 -7 -16 -15 -37
-16 -45 -2 -8 -7 -23 -12 -35 -6 -11 -16 -36 -22 -55 -7 -19 -19 -48 -25 -65
-27 -65 -49 -130 -47 -137 1 -5 -2 -8 -6 -8 -5 0 -9 -6 -9 -12 -1 -13 -52
-151 -78 -213 -7 -16 -29 -73 -48 -125 -20 -52 -45 -116 -56 -143 -11 -26 -21
-51 -22 -55 -1 -4 -5 -16 -9 -27 -4 -11 -22 -60 -40 -110 -18 -49 -37 -96 -43
-102 -5 -7 -6 -13 -2 -13 4 0 2 -7 -5 -15 -7 -9 -10 -18 -6 -22 3 -3 0 -13 -8
-22 -8 -9 -15 -20 -15 -26 -1 -5 -4 -18 -7 -27 -15 -47 -49 6 -88 137 -2 6 -9
24 -16 40 -7 17 -15 39 -17 50 -2 11 -8 24 -13 29 -6 6 -10 18 -10 28 0 10 -5
18 -12 18 -6 0 -9 3 -5 6 5 5 -7 44 -38 119 -5 11 -9 23 -10 28 -2 4 -4 10 -5
15 -1 4 -2 10 -1 15 0 4 -4 7 -10 7 -5 0 -8 4 -4 9 3 5 1 12 -5 16 -5 3 -10
12 -10 19 0 8 -6 29 -14 47 -8 19 -14 36 -15 39 0 7 -50 141 -63 170 -12 28
-15 35 -56 145 -17 44 -36 98 -44 120 -7 22 -15 42 -18 45 -3 3 -6 10 -7 15
-1 10 -61 170 -110 295 -13 36 -32 83 -40 105 -9 22 -19 49 -24 60 -5 11 -18
47 -29 80 -12 33 -25 69 -30 80 -16 36 -72 186 -74 198 -1 7 -4 17 -8 22 -7
11 -115 293 -174 455 -19 52 -39 104 -44 115 -13 30 -24 69 -22 78 1 4 -3 7
-9 7 -5 0 -8 4 -5 9 14 22 -31 38 -109 40 -43 2 -82 4 -86 6 -3 3 -9 2 -13 -2z"/>
</g>
</svg>
